# xmcd
#
# Track frame offsets: 
#        150
#        12032
#        24346
#        44184
#        59198
#        71620
#        86634
#        98696
#        118930
#        135456
#        146798
#        161380
#        173154
#        193532
#        207826
#        223056
#        234794
#        250780
#        265038
#        285776
#        304210
#        321240
#        340034
#
# Disc length: 4739 seconds
#
# Revision: 0
# Processed by: cddbd v1.5.2PL0 Copyright (c) Steve Scherf et al.
# Submitted via: ExactAudioCopy v1.0b3
#
DISCID=4a128117
DTITLE=Jeffrey Hatcher  and The Big Beat - Cross Our Hearts
DYEAR=1987
DGENRE=Country
TTITLE0=Ring Of Fire
TTITLE1=I Make A Motion
TTITLE2=Love Sweet Love
TTITLE3=Southern Soul
TTITLE4=There's No Way To Fight A Memory
TTITLE5=Kitchen Sink
TTITLE6=Played The Game And Payed The Price
TTITLE7=A Month Of Somedays
TTITLE8=Silver For Gold
TTITLE9=I'm Gonna Find A Woman
TTITLE10=She's History
TTITLE11=A Pair Of Knees
TTITLE12=Deliver Me
TTITLE13=Out Of Time
TTITLE14=99 Years
TTITLE15=Man Who Would Be King
TTITLE16=In My Hand
TTITLE17=Cross My Heart
TTITLE18=The King And Me
TTITLE19=Eye Of The Needle
TTITLE20=In Waiting
TTITLE21=Frozen In Place
TTITLE22=Midnight Trains
EXTD=
EXTT0=
EXTT1=
EXTT2=
EXTT3=
EXTT4=
EXTT5=
EXTT6=
EXTT7=
EXTT8=
EXTT9=
EXTT10=
EXTT11=
EXTT12=
EXTT13=
EXTT14=
EXTT15=
EXTT16=
EXTT17=
EXTT18=
EXTT19=
EXTT20=
EXTT21=
EXTT22=
PLAYORDER=
